PathFileType	4	(X/Y/Z)	C:\Users\Basilio\Documents\Thesis Gigler\squatting_fais\c3dfiles\044\SLS_front_pre3\markers_experimental.trc
DataRate	CameraRate	NumFrames	NumMarkers	Units	OrigDataRate	OrigDataStartFrame	OrigNumFrames
200.000000	200.000000	4	60	mm	200.000000	172	1376
Frame#	Time	FHD			LBHD			RBHD			C7			T10			CLAV			LSHO			LUUPA			LMUPA			LDUPA			LLEP			LMEP			LUL			LRFIN			RSHO			RUPA1			RMUPA			RDUPA			RLEP			RMEP			RUL			RUFIN			LASI			RASI			USACR			LSACR			RSACR			LTHI1			LTHI2			LTHI3			LTHI4			LLFC			LMFC			LTIB1			LTIB2			LTIB3			LTIB4			LLMAL			LMMAL			LHEE			LMT1			LMT2			LMT5			RTHI			RTHI2			RTHI3			RTHI4			RLFC			RMFC			RTIB1			RTIB2			RTIB3			RTIB4			RLMAL			RHEE			RMT1			RMT2			RMT5			LRAD			RMMAL			
		X1	Y1	Z1	X2	Y2	Z2	X3	Y3	Z3	X4	Y4	Z4	X5	Y5	Z5	X6	Y6	Z6	X7	Y7	Z7	X8	Y8	Z8	X9	Y9	Z9	X10	Y10	Z10	X11	Y11	Z11	X12	Y12	Z12	X13	Y13	Z13	X14	Y14	Z14	X15	Y15	Z15	X16	Y16	Z16	X17	Y17	Z17	X18	Y18	Z18	X19	Y19	Z19	X20	Y20	Z20	X21	Y21	Z21	X22	Y22	Z22	X23	Y23	Z23	X24	Y24	Z24	X25	Y25	Z25	X26	Y26	Z26	X27	Y27	Z27	X28	Y28	Z28	X29	Y29	Z29	X30	Y30	Z30	X31	Y31	Z31	X32	Y32	Z32	X33	Y33	Z33	X34	Y34	Z34	X35	Y35	Z35	X36	Y36	Z36	X37	Y37	Z37	X38	Y38	Z38	X39	Y39	Z39	X40	Y40	Z40	X41	Y41	Z41	X42	Y42	Z42	X43	Y43	Z43	X44	Y44	Z44	X45	Y45	Z45	X46	Y46	Z46	X47	Y47	Z47	X48	Y48	Z48	X49	Y49	Z49	X50	Y50	Z50	X51	Y51	Z51	X52	Y52	Z52	X53	Y53	Z53	X54	Y54	Z54	X55	Y55	Z55	X56	Y56	Z56	X57	Y57	Z57	X58	Y58	Z58	X59	Y59	Z59	X60	Y60	Z60	

173	0.86	-245.3598175048829	1806.19384765625	-929.8238525390627	-377.8403625488282	1763.1923828125	-1004.161926269531	-415.8774719238282	1745.4970703125	-842.9490966796877	-421.2122802734376	1564.450439453125	-928.5337524414065	-393.752899169922	1261.872802734375	-918.7072753906252	-276.8270874023438	1545.436645507813	-929.2590332031252	-327.5017395019532	1590.973022460938	-1075.748168945313	-158.3152770996094	1568.82666015625	-1166.762084960938	-132.8777465820313	1581.574340820313	-1124.224487304688	-89.95619964599611	1565.75927734375	-1162.44970703125	-30.27626037597657	1567.187255859375	-1154.687622070313	-41.08569717407227	1490.652465820313	-1137.534790039063	218.7585144042969	1582.557495117188	-1028.655029296875	233.1283874511719	1597.076416015625	-927.377136230469	-333.2057189941407	1577.266967773438	-766.9613037109376	-173.0432891845703	1548.576416015625	-671.3632812500001	-144.9266204833985	1567.343627929688	-710.4084472656251	-103.2773208618164	1548.833129882813	-670.4714355468751	-42.67002105712891	1553.436767578125	-681.2416381835939	-45.07018661499024	1474.089599609375	-699.1729125976564	213.2647552490235	1577.529541015625	-796.6445922851565	230.0274200439454	1566.957153320313	-910.1328125000002	-206.2628631591797	1079.0439453125	-1023.371765136719	-200.2506561279297	1064.13720703125	-805.660827636719	-374.7858276367188	1118.337280273438	-907.1919555664065	-379.4750976562501	1085.39453125	-933.554626464844	-377.1699523925782	1088.671508789063	-876.0491333007815	-307.2065734863282	840.5749511718752	-1096.015380859375	-275.4901123046876	762.3616943359376	-1094.296752929688	-228.1218719482422	763.6958007812501	-1087.268432617188	-304.8458251953126	710.4210815429689	-1081.865966796875	-294.2196960449219	550.0074462890626	-1068.697143554688	-284.3266906738282	542.9664306640626	-946.2271728515627	-275.5479431152344	372.7422790527344	-1000.365234375	-302.4769592285157	328.0476074218751	-1072.542358398438	-272.5395812988282	325.6767883300782	-1036.40869140625	-289.2921142578126	247.3845977783204	-1008.438232421875	-344.5892333984376	132.3670349121094	-1056.581787109375	-323.6852111816407	138.9463958740235	-973.1560668945315	-408.3073120117189	111.7593765258789	-1006.686218261719	-202.5392761230469	62.92584228515626	-985.8485107421877	-201.0464630126954	63.47425079345705	-1032.92578125	-238.1543579101563	50.363094329834	-1079.308837890625	-300.8009033203126	798.0272216796877	-720.6729125976564	-261.0902709960938	742.6967773437501	-717.3405761718751	-228.8085632324219	743.9978027343751	-724.3889160156251	-288.1368713378907	663.4078369140626	-730.5925292968751	-293.3714599609376	548.1768188476564	-733.5615234375001	-304.2036437988282	536.3172607421876	-856.9040527343752	-256.3519592285157	416.6277160644532	-755.5561523437501	-327.1820983886719	351.3663635253907	-701.8331909179689	-286.3203125000001	341.5492858886719	-720.2200317382814	-279.5298156738282	288.8467712402344	-743.7385253906251	-349.6327514648438	139.5472564697266	-717.0456542968751	-411.865203857422	112.3305435180664	-757.8760375976564	-208.7902374267579	66.23308563232423	-790.1204833984377	-200.9873199462891	61.25663375854494	-754.0838623046876	-237.8044738769532	48.94042587280275	-698.8956298828126	208.6384277343751	1531.345092773438	-979.087829589844	nan	nan	nan	
174	0.865	-245.1537475585938	1806.253173828125	-930.6308593750002	-377.8183288574219	1763.1396484375	-1004.952392578125	-415.8585205078126	1745.697143554688	-843.581970214844	-421.1781311035157	1564.746337890625	-929.4612426757815	-393.9103088378907	1261.816650390625	-919.2467041015627	-276.9440002441407	1545.362426757813	-929.955505371094	-327.2348632812501	1591.013549804688	-1076.485595703125	-157.7151489257813	1569.606811523438	-1167.755737304688	-132.5485382080078	1581.326049804688	-1124.712646484375	-89.92928314208986	1565.721435546875	-1163.2314453125	-33.96065139770509	1564.386352539063	-1149.51171875	-41.17853927612305	1490.492919921875	-1138.030883789063	218.7993316650391	1582.348388671875	-1029.23681640625	233.0865325927735	1596.854248046875	-928.0020751953127	-333.2621459960938	1577.306762695313	-767.6710205078126	-173.1319580078125	1548.501953125	-671.9729003906251	-145.0284118652344	1567.416259765625	-711.2666015625001	-103.2410278320313	1548.699340820313	-671.2363891601564	-42.63229370117188	1553.379272460938	-681.9869384765626	-45.00074768066407	1474.245361328125	-700.1460571289064	213.2808074951172	1577.40869140625	-797.300476074219	229.9418182373047	1566.829467773438	-910.795349121094	-206.3596343994141	1079.066528320313	-1023.909729003906	-200.4350738525391	1064.152465820313	-806.0899047851565	-375.1265869140626	1118.398681640625	-907.8004150390627	-379.5400085449219	1085.430786132813	-934.119567871094	-377.2649230957032	1088.691650390625	-876.6987304687502	-307.2503967285157	840.5941162109377	-1096.307983398438	-275.5033264160157	762.2677001953126	-1094.6865234375	-227.973373413086	763.7360839843751	-1087.73193359375	-304.8261108398438	710.4284057617189	-1082.169799804688	-294.2544860839844	549.9283447265626	-1068.908813476563	-284.3671569824219	543.0034179687501	-946.476501464844	-275.5958862304688	372.7532348632813	-1000.48779296875	-302.4902343750001	327.8446960449219	-1072.660522460938	-272.3722229003907	325.5104064941407	-1036.498046875	-289.2640075683594	247.2854766845704	-1008.550537109375	-344.5688476562501	132.3199157714844	-1056.616577148438	-323.6924743652344	138.9479370117188	-973.1741943359377	-408.344451904297	111.7908477783203	-1006.669921875	-202.5804138183594	62.91304779052736	-985.8953857421877	-201.0343322753907	63.4475440979004	-1032.92138671875	-238.0003204345704	50.45259475708009	-1079.407470703125	-300.8160400390626	798.0569458007815	-721.1815185546876	-261.4701843261719	743.3626098632814	-718.5743408203126	-228.8717041015626	743.9582519531251	-725.1480102539064	-288.1242980957032	663.5115356445314	-730.9769897460939	-293.0819091796876	547.6095581054689	-733.2836303710939	-304.1707763671876	536.2218017578126	-857.2144775390627	-256.3585510253907	416.7301635742189	-755.6534423828126	-327.1362915039063	351.4007873535157	-702.0012207031251	-286.3246765136719	341.6387329101563	-720.3941650390626	-279.5168457031251	288.8282470703126	-743.8820800781251	-349.9514770507813	140.0518951416016	-717.7385253906251	-411.8681640625001	112.3349761962891	-757.8784179687501	-208.8542938232422	66.17412567138673	-790.150329589844	-200.9822540283204	61.25345611572267	-754.1271972656251	-237.7954711914063	48.95389556884767	-698.9407958984376	208.7664489746094	1531.245483398438	-979.7487792968752	nan	nan	nan	
175	0.87	-244.656478881836	1806.26611328125	-931.605163574219	-377.5477600097657	1763.229736328125	-1005.692199707031	-415.6221923828126	1745.8291015625	-844.500915527344	-421.1649475097657	1564.680297851563	-930.1636962890627	-393.8764648437501	1261.929565429688	-920.0457763671877	-276.7526245117188	1545.360473632813	-930.7349243164065	-327.0635070800782	1591.0205078125	-1077.063720703125	-157.59716796875	1569.550170898438	-1168.56689453125	-132.6895141601563	1581.19921875	-1125.598266601563	-89.17576599121095	1565.683959960938	-1164.77392578125	-31.36269569396973	1564.70458984375	-1152.711791992188	-41.15349197387696	1490.54248046875	-1138.61279296875	218.8480987548829	1582.210205078125	-1030.017333984375	233.0821533203126	1596.811889648438	-928.5964965820315	-333.1589050292969	1577.3525390625	-768.440612792969	-173.1260986328125	1548.549194335938	-672.6876220703126	-145.1307678222657	1567.57568359375	-712.1514892578126	-103.3262252807617	1548.807983398438	-671.7802124023439	-42.64104080200196	1553.372924804688	-682.6323242187501	-44.87528610229493	1474.07177734375	-700.9346923828126	213.3231048583985	1577.3837890625	-798.0169067382815	229.9261016845704	1566.609741210938	-911.4460449218752	-206.3042297363282	1079.076904296875	-1024.48828125	-200.608139038086	1064.128173828125	-806.5023193359377	-375.1067199707032	1118.430297851563	-908.496276855469	-379.5485534667969	1085.405029296875	-934.7547607421877	-377.3682556152344	1088.606201171875	-877.2685546875002	-307.1429748535157	840.5653076171877	-1096.867431640625	-275.4526977539063	762.2292480468751	-1095.18017578125	-228.035385131836	763.6783447265626	-1088.1328125	-304.8213195800782	710.3645629882814	-1082.596557617188	-294.1148681640626	549.9156494140626	-1069.290405273438	-284.3556518554688	543.0060424804689	-946.6907348632815	-275.6631774902344	372.7501525878907	-1000.618774414063	-302.3152465820313	327.8567810058594	-1072.784423828125	-272.4005432128907	325.5060729980469	-1036.589477539063	-289.2923278808594	247.2810821533204	-1008.651428222656	-344.5682373046876	132.3006134033203	-1056.651000976563	-323.7250671386719	138.9438934326172	-973.1949462890627	-408.2789916992189	111.7019348144532	-1006.707458496094	-202.578598022461	62.8608856201172	-985.8494262695315	-201.0517730712891	63.48898315429689	-1032.922241210938	-238.1326141357422	50.28886032104494	-1079.3173828125	-300.8508605957032	798.0172119140627	-721.5821533203126	-261.5568847656251	743.2683105468751	-719.1093750000001	-228.9610290527344	743.9782104492189	-725.5729370117189	-287.9653320312501	663.2487792968751	-731.1043701171876	-293.0954895019532	547.7453002929689	-733.7889404296876	-304.0553283691407	536.1900024414064	-857.4971923828127	-256.2908325195313	416.7781677246095	-755.8674316406251	-327.0561523437501	351.5078735351563	-702.2084960937501	-286.2814636230469	341.6940917968751	-720.5400390625001	-279.4085388183594	288.8898925781251	-744.0407714843751	-349.8951110839844	140.1676940917969	-717.7870483398439	-411.8363647460939	112.366943359375	-757.9107055664064	-208.8909301757813	66.19140625000001	-790.1545410156252	-200.978988647461	61.26462554931642	-754.1293945312501	-237.7907714843751	48.97283172607423	-698.8572387695314	208.9552154541016	1531.090454101563	-980.5532226562502	nan	nan	nan	
176	0.875	-244.1255798339844	1806.239135742188	-932.569763183594	-377.2722778320313	1763.367553710938	-1006.379333496094	-415.491668701172	1745.915283203125	-845.3840332031252	-421.0839843750001	1564.502685546875	-930.7617797851565	-393.9686889648439	1261.764526367188	-920.7285766601565	-276.6461181640626	1545.334106445313	-931.5200805664065	-327.5003356933594	1590.84228515625	-1077.851196289063	-157.7904510498047	1569.286376953125	-1169.177734375	-132.7278594970703	1581.117065429688	-1126.172485351563	-89.10772705078126	1565.558471679688	-1165.516723632813	-31.33077049255372	1564.6279296875	-1153.423828125	-41.24484634399415	1490.36083984375	-1139.309936523438	218.7489013671876	1582.112548828125	-1030.661499023438	233.3232421875001	1596.595825195313	-929.4118652343752	-333.1517028808594	1577.36669921875	-769.1941528320315	-172.9793853759766	1548.56640625	-673.3742675781251	-145.1239166259766	1567.468994140625	-712.8872680664064	-103.3315048217774	1548.882446289063	-672.5025634765626	-42.65233230590821	1553.275634765625	-683.2010498046876	-44.85834884643555	1473.826293945313	-701.1976928710939	213.3546142578126	1577.12548828125	-798.6795043945315	230.3831787109376	1566.500122070313	-912.1385498046877	-206.3065948486329	1079.101318359375	-1025.16357421875	-200.8313293457032	1064.131713867188	-806.9416503906252	-375.1607360839844	1118.440063476563	-909.090026855469	-379.5287170410157	1085.448364257813	-935.3899536132815	-377.5414428710938	1088.627319335938	-877.791442871094	-307.1486206054688	840.552429199219	-1097.260986328125	-275.7195739746094	762.1492309570314	-1095.098022460938	-228.0960388183594	763.7371215820314	-1088.160888671875	-304.7991638183594	710.2699584960939	-1082.885620117188	-294.0868530273438	549.9532470703126	-1069.657348632813	-284.3164672851563	543.1607055664064	-947.0310668945315	-275.6774291992188	372.6861267089844	-1000.771423339844	-302.2854919433594	327.8294982910157	-1072.925659179688	-272.3659973144532	325.3383178710938	-1036.7626953125	-289.2679138183594	247.2369384765626	-1008.738342285156	-344.5686645507813	132.2405242919922	-1056.642944335938	-323.6831054687501	138.9069976806641	-973.2080688476565	-408.3927307128907	111.8653030395508	-1006.724975585938	-202.5598297119141	62.90192794799806	-985.9019165039065	-201.0588989257813	63.50397109985353	-1032.923095703125	-238.0742492675782	50.37664031982423	-1079.311279296875	-300.8695678710938	797.9690551757815	-722.0017700195314	-261.4190979003907	743.2736206054689	-719.2227172851564	-229.0461425781251	743.9494628906251	-725.3995361328126	-288.0472717285157	663.3993530273439	-731.5093383789064	-293.0378723144532	547.8337402343751	-734.1951904296876	-303.9509277343751	536.1072387695314	-857.783874511719	-256.1833190917969	416.7639465332032	-756.0772705078126	-326.9590759277344	351.5662841796876	-702.4607543945314	-286.3209533691407	341.7324829101563	-720.7432250976564	-279.3031311035157	288.9154968261719	-744.2324829101564	-349.8120117187501	140.2162322998047	-717.8303222656251	-411.8276367187501	112.3692321777344	-757.9146728515626	-208.8511199951172	66.2343215942383	-790.1361083984377	-200.9978790283204	61.26369476318361	-754.1575317382814	-237.8324584960938	48.93883895874025	-698.9282836914064	209.1182708740235	1530.999633789063	-981.1795043945315	nan	nan	nan	
